<?xml version="1.0" encoding="UTF-8" standalone="no"?>
<!-- Created with Inkscape (http://www.inkscape.org/) -->

<svg
   xmlns:dc="http://purl.org/dc/elements/1.1/"
   xmlns:cc="http://creativecommons.org/ns#"
   xmlns:rdf="http://www.w3.org/1999/02/22-rdf-syntax-ns#"
   xmlns:svg="http://www.w3.org/2000/svg"
   xmlns="http://www.w3.org/2000/svg"
   xmlns:sodipodi="http://sodipodi.sourceforge.net/DTD/sodipodi-0.dtd"
   xmlns:inkscape="http://www.inkscape.org/namespaces/inkscape"
   version="1.1"
   id="svg2"
   xml:space="preserve"
   width="70px"
   height="70px"
   viewBox="0 0 324 324"
   sodipodi:docname="Stacked square_Zenda BA.svg"
   inkscape:version="0.92.4 (unknown)"><metadata
     id="metadata8"><rdf:RDF><cc:Work
         rdf:about=""><dc:format>image/svg+xml</dc:format><dc:type
           rdf:resource="http://purl.org/dc/dcmitype/StillImage" /><dc:title></dc:title></cc:Work></rdf:RDF></metadata><defs
     id="defs6"><clipPath
       clipPathUnits="userSpaceOnUse"
       id="clipPath20"><path
         d="M 0.5,243 H 243 V 0.5 H 0.5 Z"
         id="path18"
         inkscape:connector-curvature="0"
         style="clip-rule:evenodd" /></clipPath><clipPath
       clipPathUnits="userSpaceOnUse"
       id="clipPath30"><path
         d="m 28.95,52.55 c 0.8,0.4 1.1,1.3 1.1,2.2 v 19.9 c 0,0.8 -0.4,1.8 -1.1,2.2 h 9.5 c 4.2,0 8.3,-1.7 8.3,-6.5 0,-2.5 -2.2,-4.6 -4.6,-5 3.4,0 6.8,-2.1 6.8,-5.9 0,-5.4 -5.7,-6.8 -9.7,-6.8 h -10.3 z m 7.7,22.2 c -0.4,0 -0.7,0 -1.6,-0.1 v -8.5 h 1 c 2.9,0 5.7,0.9 5.7,4.3 0,3.3 -2.2,4.3 -5.1,4.3 z m 0.6,-10.8 c -0.7,0 -1.3,0 -2.2,-0.1 v -9 c 1.1,-0.2 2.2,-0.3 3.2,-0.3 2.4,0 4.9,1.1 4.9,4.8 0.1,3.8 -2.9,4.6 -5.9,4.6 z m 21.1,10.8 c -0.4,0 -0.8,-0.1 -1.2,-0.1 v -8.4 c 0.4,0 0.8,-0.1 1.1,-0.1 2.7,0 4.7,1.5 4.7,4.5 0,3 -2,4.1 -4.6,4.1 z m 12.2,-22.3 c -0.9,0 -2,0 -2.8,0.2 -1.6,0.5 -3.9,4.2 -4.8,5.7 -1.4,2.4 -2.6,5.6 -5.8,5.7 v -9.3 c 0,-0.8 0.4,-1.8 1.1,-2.2 h -7.3 c 0.8,0.4 1.1,1.3 1.1,2.2 v 19.9 c 0,0.8 -0.4,1.8 -1.1,2.2 h 8.8 c 3.8,0 8.6,-1.5 8.6,-6 0,-3.8 -3.2,-5.8 -6.7,-5.8 5,0 8,-11.9 13.6,-11.9 -1.6,-0.5 -3.2,-0.7 -4.7,-0.7 z m 5,0.1 c 0.6,0.3 1.2,1.1 1.2,2.2 v 19.9 c 0,1.1 -0.6,1.9 -1.2,2.2 h 7.5 c -0.6,-0.3 -1.2,-1.1 -1.2,-2.2 v -19.9 c 0,-1.1 0.6,-1.9 1.2,-2.2 z m 16.1,0 c 0.8,0.4 1.2,1.3 1.2,2.2 v 19.3 h -5.4 c -1.2,0 -2.7,-0.1 -3.8,-0.8 l 1.7,3.6 h 17.8 c 1.4,0 2.9,0 4.3,0.3 -0.7,-1.8 -2.7,-3.2 -3.8,-3.2 -1.4,0 -3.7,0.1 -5.8,0.1 v -19.3 c 0,-0.8 0.4,-1.8 1.2,-2.2 h -7.4 z m 16.7,0 c 0.6,0.3 1.2,1.1 1.2,2.2 v 19.9 c 0,1.1 -0.6,1.9 -1.2,2.2 h 7.5 c -0.6,-0.3 -1.2,-1.1 -1.2,-2.2 v -19.9 c 0,-1.1 0.6,-1.9 1.2,-2.2 z m 22,5.5 c 0,4.6 -10.9,5.7 -10.9,13 0,4.6 4.3,6.1 8.2,6.1 1.7,0 4.2,-0.2 5.7,-1 l 0.3,-4.5 c -1,2 -3.4,3.4 -5.6,3.4 -1.8,0 -3.6,-0.9 -3.6,-2.9 0,-4.8 11.1,-6 11.1,-12.9 0,-5.1 -4.4,-7.2 -8.9,-7.2 -2.3,0 -5.5,0.4 -7.5,1.8 -0.1,0.8 -0.2,1.7 -0.2,2.5 0,1 0.1,2 0.2,3 1.2,-2.8 3.8,-5 7,-5 2.4,0 4.2,1.1 4.2,3.7 z m 23.3,-5.5 c 0.5,0.2 1.1,1.1 1.1,2.2 v 9 c -1.3,0.1 -3.1,0.2 -5.1,0.2 -2.1,0 -3.9,-0.1 -5.2,-0.2 v -9 c 0,-1.1 0.5,-1.9 1.1,-2.2 h -7.3 c 0.5,0.2 1.1,1.1 1.1,2.2 v 19.9 c 0,1.1 -0.6,1.9 -1.1,2.2 h 7.2 c -0.5,-0.3 -1.1,-1.1 -1.1,-2.2 v -8.1 c 1.3,-0.1 3.1,-0.2 5.2,-0.2 2,0 3.8,0.1 5.1,0.2 v 8.1 c 0,1.1 -0.6,1.9 -1.1,2.2 h 7.2 c -0.5,-0.3 -1.1,-1.1 -1.1,-2.2 v -19.9 c 0,-1.1 0.5,-1.9 1.1,-2.2 z"
         id="path28"
         inkscape:connector-curvature="0" /></clipPath><clipPath
       clipPathUnits="userSpaceOnUse"
       id="clipPath40"><path
         d="m 38.25,21.35 c 0.2,0.2 0.4,0.4 0.4,0.8 0,0.1 -0.1,0.4 -0.2,0.8 0,0 -2,5.4 -2.2,6 -1.5,0.2 -3.1,0.2 -4.6,0.2 -1.4,0 -2.9,0 -4.4,-0.2 -0.2,-0.5 -2.3,-5.9 -2.3,-5.9 -0.3,-0.7 -0.4,-1 -0.4,-1.1 0,-0.4 0.3,-0.5 0.6,-0.7 h -4.9 c 0.7,0.4 1.3,1.1 1.7,1.9 l 8,20.7 c 0,0.1 0,0.2 0,0.3 0,0.6 -0.4,1.1 -0.9,1.4 h 6.3 l 8.2,-22.3 c 0.3,-0.9 1,-1.5 1.6,-1.9 z m -6.4,19.6 -3.7,-9.4 c 1.1,-0.1 2.2,-0.2 3.3,-0.2 1.3,0 2.5,0 3.8,0.2 z m 14.5,-19.6 c 0.6,0.3 1.2,1.1 1.2,2.2 v 19.9 c 0,1.1 -0.6,1.9 -1.2,2.2 h 7.4 c -0.6,-0.3 -1.2,-1.1 -1.2,-2.2 v -19.9 c 0,-1.1 0.6,-1.9 1.2,-2.2 z m 18.8,22.1 c -0.4,0 -0.8,-0.1 -1.2,-0.1 v -8.4 c 0.4,0 0.7,-0.1 1.1,-0.1 2.7,0 4.7,1.5 4.7,4.5 0.1,3 -1.9,4.1 -4.6,4.1 z m 12.8,-22.3 c -0.9,0 -1.9,0 -2.8,0.2 -1.7,0.5 -3.9,4.2 -4.8,5.7 -1.4,2.4 -3.2,5.7 -6.4,5.7 v -9.3 c 0,-0.8 0.4,-1.8 1.1,-2.2 h -7.3 c 0.8,0.4 1.1,1.3 1.1,2.2 v 19.9 c 0,0.8 -0.4,1.8 -1.1,2.2 h 8.8 c 3.8,0 8.6,-1.5 8.6,-6 0,-3.8 -3.5,-5.8 -6.1,-5.8 5.2,-0.3 8.4,-11.9 13.6,-11.9 -1.5,-0.5 -3.1,-0.7 -4.7,-0.7 z m 30.3,22 -7.4,-21.9 c -0.6,0 -1.2,0.2 -1.5,0.4 -0.7,0.7 -1.9,3.6 -2.3,4.7 l -3.3,8.4 -4.8,-13.6 h -2.3 l -8.2,21.9 c -0.4,0.9 -1,1.8 -1.9,2.3 h 7.2 c -0.3,-0.2 -0.5,-0.5 -0.5,-1 0,-0.2 0.1,-0.6 0.2,-0.8 l 5.4,-14.5 5.7,16.3 6.3,-15.8 4.8,14.3 c 0.1,0.4 0.2,0.5 0.2,0.8 0,0.3 -0.1,0.5 -0.4,0.7 h 4.7 c -1,-0.3 -1.6,-1.3 -1.9,-2.2 z m 8.8,-2.2 -3.7,-9.4 c 1.1,-0.1 2.2,-0.2 3.3,-0.2 1.3,0 2.5,0 3.8,0.2 z m 6.3,-19.6 c 0.3,0.2 0.4,0.4 0.4,0.8 0,0.1 -0.1,0.4 -0.2,0.8 0,0 -2,5.4 -2.2,6 -1.5,0.2 -3.1,0.2 -4.6,0.2 -1.4,0 -2.9,0 -4.3,-0.2 -0.2,-0.5 -2.3,-5.9 -2.3,-5.9 -0.3,-0.7 -0.4,-1 -0.4,-1.1 0,-0.4 0.3,-0.5 0.6,-0.7 h -4.9 c 0.7,0.4 1.3,1.1 1.6,1.9 l 8,20.7 c 0,0.1 0,0.2 0,0.3 0,0.6 -0.4,1.1 -0.9,1.4 h 6.3 l 8.1,-22.3 c 0.3,-0.9 1.1,-1.5 1.6,-1.9 z m 21.9,21.6 -5.7,-10.1 v -9.5 c 0,-0.8 0.3,-1.8 1.1,-2.2 h -7.1 c 0.7,0.4 1.1,1.4 1.1,2.2 v 9.5 l -5,8 c -0.4,0.7 -2.5,4.2 -5.1,4.2 0.7,0.3 2.8,0.7 4.2,0.7 2.3,0 3.5,-0.2 4.9,-2.5 l 4.6,-7.3 c 0.4,0.7 4,7.1 4,7.1 0.4,0.8 0.7,1.3 0.7,1.6 0,0.3 -0.1,0.6 -0.5,0.8 h 5.1 c -0.9,-0.4 -1.8,-1.5 -2.3,-2.5 z m 13.4,-16.2 c 0,4.6 -10.9,5.7 -10.9,13 0,4.6 4.3,6.1 8.1,6.1 1.7,0 4.2,-0.2 5.7,-1 l 0.3,-4.5 c -1,2 -3.4,3.4 -5.6,3.4 -1.8,0 -3.6,-0.9 -3.6,-2.9 0,-4.8 11.1,-6 11.1,-12.9 0,-5.1 -4.4,-7.2 -8.9,-7.2 -2.3,0 -5.5,0.4 -7.5,1.8 -0.1,0.8 -0.2,1.7 -0.2,2.5 0,1 0.1,2 0.2,3 1.2,-2.8 3.8,-5 7,-5 2.5,0.1 4.3,1.1 4.3,3.7 z"
         id="path38"
         inkscape:connector-curvature="0" /></clipPath><clipPath
       clipPathUnits="userSpaceOnUse"
       id="clipPath50"><path
         d="m 223.35,93.75 c -4.1,-4.1 -12.9,-7.5 -17.2,-9.2 -5.9,-2.2 -8.6,-3 -11.9,-4.1 -3.8,-1.2 -11.3,-3.5 -11.3,-3.5 15.6,-4.6 26.5,-6 26.5,-6 0,0 5.1,1.6 13.2,5.9 4.4,2.2 6.5,3.7 8.1,5.2 0.6,0.5 2,2 2.4,4 0,0.1 0.1,0.5 0.1,0.9 0,0 0,0.3 0,0.5 0,0.3 -0.1,0.4 -0.1,0.4 0,0 -0.1,0.5 -0.2,0.8 -0.1,0.3 -0.6,1.3 -1.4,2 -0.5,0.4 -1.5,1.5 -4.9,2.7 -1.2,0.4 -3,0.8 -3,0.8 z"
         id="path48"
         inkscape:connector-curvature="0"
         style="clip-rule:evenodd" /></clipPath><linearGradient
       x1="0"
       y1="0"
       x2="0"
       y2="1024"
       gradientUnits="userSpaceOnUse"
       gradientTransform="matrix(1,0,0,-1,182.95,94.15)"
       id="linearGradient58"><stop
         style="stop-opacity:1;stop-color:#e8e9f5"
         offset="0"
         id="stop54" /><stop
         style="stop-opacity:1;stop-color:#264895"
         offset="1"
         id="stop56" /></linearGradient><linearGradient
       x1="35.210098"
       y1="-4.5409999"
       x2="18.848551"
       y2="23.798019"
       gradientUnits="userSpaceOnUse"
       gradientTransform="matrix(1,0,0,-1,182.95,94.15)"
       spreadMethod="pad"
       id="linearGradient68"><stop
         style="stop-opacity:1;stop-color:#e8e9f5"
         offset="0"
         id="stop64" /><stop
         style="stop-opacity:1;stop-color:#264895"
         offset="1"
         id="stop66" /></linearGradient><clipPath
       clipPathUnits="userSpaceOnUse"
       id="clipPath78"><path
         d="m 233.25,87.05 c 0,0 0,0.4 -0.1,0.8 -0.1,0.3 -0.2,0.6 -0.4,1 -0.3,0.4 -0.6,0.8 -1.2,1.4 -0.4,0.4 -0.8,0.7 -1.4,1.1 -2.1,1.4 -4.9,2.2 -7.3,2.5 -3.8,0.5 -8.1,0.4 -8.5,0.4 -1.4,0 -10.3,-0.1 -12.6,-0.1 -10.2,-0.2 -22.8,-0.2 -26,-0.2 -33.9,-0.2 -48.6,0.6 -65,3.9 -14,2.8 -21.7,5.4 -21.7,5.4 12.3,0.4 84.1,3.4 97.2,3.8 8.6,0.2 14.7,0.3 19.5,0 2.5,-0.1 4.8,-0.4 7.7,-0.9 2.6,-0.4 5,-1.2 6.4,-1.7 2.9,-1.1 5.4,-2.6 6.6,-4.2 0,0 0.4,-0.4 0.8,-1 0.5,-0.8 1.2,-1.7 1.4,-2 1.8,-2.7 2.6,-4.4 2.9,-5 0.3,-0.6 0.6,-1.3 0.9,-1.9 0.3,-0.6 0.4,-1 0.5,-1.3 0.2,-0.7 0.2,-1.3 0.2,-1.4 z"
         id="path76"
         inkscape:connector-curvature="0"
         style="clip-rule:evenodd" /></clipPath><clipPath
       clipPathUnits="userSpaceOnUse"
       id="clipPath88"><path
         d="m 50.25,196.05 c -0.6,-1 -1,-2.6 -1.3,-4.5 h -6.3 c -1,0 -2.1,-0.1 -3,-0.2 l -2.5,-5 h 18.9 c 0.3,0.9 0.3,2.1 0.3,3.2 0,2.8 -0.3,4.8 -1.1,6.1 z"
         id="path86"
         inkscape:connector-curvature="0"
         style="clip-rule:evenodd" /></clipPath><clipPath
       clipPathUnits="userSpaceOnUse"
       id="clipPath98"><path
         d="m 69.65,186.05 c -4.1,0 -7.2,1.1 -9.4,3.4 -2.1,2.2 -3.1,5.4 -3.1,9.7 0,2.6 0.3,4.7 1.1,6.6 0.7,1.8 1.7,3.3 2.9,4.3 2.4,1.9 5.3,2.9 8.4,2.9 3.1,0 5.7,-0.9 7.4,-2.5 1.7,-1.6 2.6,-4.6 2.6,-8.9 0,-2.5 -1.2,-3.7 -3.7,-3.7 h -11.3 c 0.2,-2.2 0.7,-3.7 1.7,-4.7 0.9,-0.9 2.6,-1.4 4.7,-1.4 1.2,0 2.3,0.2 3.4,0.4 1,0.3 1.8,0.5 2.3,0.9 l 0.7,0.4 1.6,-4.1 c -0.2,-0.3 -0.5,-0.5 -0.9,-0.9 -0.4,-0.3 -1.4,-0.9 -3,-1.5 -1.5,-0.7 -3.3,-0.9 -5.4,-0.9 z m 3.3,16.3 c 0.1,0.5 0.1,1 0.1,1.7 0,0.7 -0.3,1.5 -0.9,2.2 -0.5,0.8 -1.6,1.2 -2.8,1.2 -1.4,0 -2.4,-0.4 -3.1,-1.2 -0.7,-0.9 -1.2,-2.2 -1.5,-4.2 z"
         id="path96"
         inkscape:connector-curvature="0" /></clipPath><clipPath
       clipPathUnits="userSpaceOnUse"
       id="clipPath108"><path
         d="m 81.05,212.35 c 1.9,0.4 3.6,0.6 5.2,0.6 1.6,0 2.8,0 3.8,-0.1 v -2.6 c 0.9,0.7 2,1.3 3.4,1.8 1.5,0.4 2.8,0.7 4.1,0.7 3.4,0 5.8,-0.8 7.2,-2.4 1.4,-1.6 2.1,-4.3 2.1,-8.3 v -10 c 1.4,-0.5 2.3,-1.1 2.8,-1.7 l -0.5,-4 h -12 l -0.5,4 c 0.5,0.7 1.5,1.2 2.8,1.7 v 10.3 c 0,1.9 -0.3,3.1 -0.9,3.8 -0.6,0.6 -1.7,0.9 -3.3,0.9 -1.6,0 -3.1,-0.5 -4.7,-1.6 v -13.4 c 1.4,-0.5 2.3,-1.1 2.8,-1.7 l -0.5,-4 h -11.9 l -0.5,4 c 0.5,0.7 1.5,1.2 2.8,1.7 v 14.4 c -1.2,0.4 -2.2,1 -2.8,1.7 z"
         id="path106"
         inkscape:connector-curvature="0"
         style="clip-rule:evenodd" /></clipPath><clipPath
       clipPathUnits="userSpaceOnUse"
       id="clipPath118"><path
         d="m 123.45,221.55 c 2,0.4 3.9,0.7 5.7,0.7 1.8,0 3.4,-0.1 4.7,-0.2 v -29.4 c 1,-0.2 2,-0.4 2.8,-0.9 v -4.1 c -2.1,-1.1 -4.7,-1.6 -7.9,-1.6 -0.3,0.2 -0.7,0.5 -1,0.9 -0.3,0.4 -0.5,0.9 -0.5,1.3 -0.8,-0.6 -1.7,-1.1 -2.9,-1.6 -1.2,-0.4 -2.4,-0.7 -3.6,-0.7 -3.7,0 -6.5,1 -8.1,3 -1.6,2 -2.5,5.3 -2.5,9.9 0,5.3 1.3,8.9 3.9,11 2.2,1.9 5,2.8 8.3,2.8 1.5,0 2.9,-0.2 4.4,-0.5 v 3.4 c -1.6,0.4 -2.8,1 -3.5,1.9 z m -1.7,-30.3 c 2,0 3.5,0.6 4.7,1.7 v 14 c -1.4,0.3 -2.9,0.5 -4.5,0.5 -1.6,0 -2.8,-0.7 -3.4,-2.1 -0.7,-1.4 -1,-3.5 -1,-6.3 0,-2.8 0.3,-4.8 1,-6 0.6,-1.2 1.7,-1.8 3.2,-1.8 z"
         id="path116"
         inkscape:connector-curvature="0" /></clipPath><clipPath
       clipPathUnits="userSpaceOnUse"
       id="clipPath128"><path
         d="m 139.05,208.55 c 0,0.5 0,1 0.1,1.6 3.2,1.7 6.7,2.6 10.3,2.6 3.6,0 6.4,-0.7 7.9,-2.1 1.6,-1.4 2.4,-3.7 2.4,-7 v -11 c 1.2,-0.3 2.2,-0.5 2.8,-0.9 v -4.5 c -1.7,-0.9 -4.3,-1.2 -7.6,-1.2 -0.3,0.9 -0.6,2 -0.9,3.3 -1.5,-2.2 -4.2,-3.3 -8.1,-3.3 -2.3,0 -4.3,0.7 -5.9,2 -1.6,1.4 -2.5,3.2 -2.5,5.5 0,2.3 0.8,4.1 2.3,5.5 1.6,1.3 3.8,2 6.9,2 h 5.7 v 2.5 c 0,2.7 -1.5,4.1 -4.3,4.1 -1,0 -2,-0.1 -2.7,-0.3 -0.1,-1.5 -0.3,-2.6 -0.6,-3.4 h -5.1 c -0.4,1.1 -0.7,2.7 -0.7,4.6 z m 9.4,-17.3 c 1.7,0 3.2,0.5 4.2,1.6 v 4.2 h -3.6 c -2.5,0 -3.7,-0.9 -3.7,-2.8 0,-0.9 0.3,-1.6 0.8,-2.2 0.4,-0.5 1.2,-0.8 2.3,-0.8 z"
         id="path126"
         inkscape:connector-curvature="0" /></clipPath><clipPath
       clipPathUnits="userSpaceOnUse"
       id="clipPath138"><path
         d="m 54.05,149.85 c 1.1,0 2,-0.2 2.6,-0.6 0.6,-0.4 0.9,-1 0.9,-1.9 0,-0.8 -0.3,-1.5 -0.9,-1.9 -0.6,-0.4 -1.4,-0.6 -2.6,-0.6 h -0.9 v -3.9 h -1 v 8.9 z m 0,-4.1 c 0.8,0 1.4,0.1 1.8,0.4 0.4,0.3 0.5,0.7 0.5,1.2 0,0.6 -0.2,1 -0.5,1.2 -0.3,0.2 -1,0.4 -1.8,0.4 h -0.9 v -3.2 h 0.9 z"
         id="path136"
         inkscape:connector-curvature="0" /></clipPath><clipPath
       clipPathUnits="userSpaceOnUse"
       id="clipPath148"><path
         d="m 67.65,148.75 c 0.8,-0.9 1.3,-2 1.3,-3.4 0,-1.4 -0.4,-2.5 -1.3,-3.4 -0.9,-0.9 -1.9,-1.3 -3.3,-1.3 -1.4,0 -2.5,0.4 -3.3,1.3 -0.8,0.9 -1.3,2 -1.3,3.4 0,1.4 0.4,2.5 1.3,3.4 0.9,0.9 1.9,1.3 3.3,1.3 1.4,0 2.5,-0.4 3.3,-1.3 z m -0.7,-6.1 c 0.6,0.7 0.9,1.6 0.9,2.7 0,1.2 -0.3,2.1 -0.9,2.8 -0.6,0.7 -1.5,1 -2.5,1 -1.1,0 -1.9,-0.3 -2.6,-1 -0.7,-0.7 -0.9,-1.6 -0.9,-2.7 0,-1.1 0.3,-2.1 0.9,-2.7 0.6,-0.6 1.5,-1 2.6,-1 1,-0.1 1.8,0.2 2.5,0.9 z"
         id="path146"
         inkscape:connector-curvature="0" /></clipPath><clipPath
       clipPathUnits="userSpaceOnUse"
       id="clipPath158"><path
         d="m 78.35,142.25 2.1,7.6 h 1.1 l -2.5,-8.9 h -1.2 l -1.7,5.1 -1.7,-5.1 h -1.2 l -2.5,8.9 h 1.1 l 2.1,-7.6 2.1,6.3 h 0.3 z"
         id="path156"
         inkscape:connector-curvature="0"
         style="clip-rule:evenodd" /></clipPath><clipPath
       clipPathUnits="userSpaceOnUse"
       id="clipPath168"><path
         d="m 89.35,140.95 h -5.4 v 8.9 h 5 l 0.1,-0.9 h -4.1 v -2.8 h 3.5 l 0.1,-0.9 h -3.6 v -3.3 h 4.5 z"
         id="path166"
         inkscape:connector-curvature="0"
         style="clip-rule:evenodd" /></clipPath><clipPath
       clipPathUnits="userSpaceOnUse"
       id="clipPath178"><path
         d="m 97.85,140.95 c -1.2,1.9 -1.9,3 -2.1,3.2 -0.2,0.2 -0.4,0.4 -0.6,0.5 -0.2,0.1 -0.6,0.2 -1.1,0.2 h -0.9 v -3.9 h -1 v 8.9 h 1.9 c 1.1,0 2,-0.2 2.5,-0.6 0.5,-0.4 0.8,-1 0.8,-1.8 0,-0.5 -0.1,-1 -0.4,-1.4 -0.3,-0.4 -0.6,-0.7 -1.1,-0.9 0.4,-0.2 0.8,-0.5 1.1,-1 l 2.1,-3.3 h -1.2 z m -3.8,4.8 c 0.8,0 1.4,0.1 1.7,0.4 0.3,0.3 0.5,0.7 0.5,1.4 0,0.5 -0.2,0.9 -0.5,1.2 -0.3,0.3 -0.9,0.4 -1.8,0.4 h -0.9 v -3.3 h 1 z"
         id="path176"
         inkscape:connector-curvature="0" /></clipPath><clipPath
       clipPathUnits="userSpaceOnUse"
       id="clipPath188"><path
         d="m 106.75,140.95 h -5.4 v 8.9 h 5 l 0.1,-0.9 h -4.1 v -2.8 h 3.5 l 0.1,-0.9 h -3.6 v -3.3 h 4.5 z"
         id="path186"
         inkscape:connector-curvature="0"
         style="clip-rule:evenodd" /></clipPath><clipPath
       clipPathUnits="userSpaceOnUse"
       id="clipPath198"><path
         d="m 111.85,149.85 c 1.7,0 3,-0.4 3.9,-1.2 0.9,-0.8 1.4,-1.9 1.4,-3.3 0,-1.4 -0.5,-2.5 -1.4,-3.3 -0.9,-0.8 -2.2,-1.2 -3.9,-1.2 h -2.4 v 8.9 h 2.4 z m 0,-8 c 1.4,0 2.4,0.3 3.1,0.9 0.7,0.6 1,1.5 1,2.7 0,1.2 -0.3,2.1 -1,2.7 -0.7,0.6 -1.7,0.9 -3.1,0.9 h -1.3 v -7.1 h 1.3 z"
         id="path196"
         inkscape:connector-curvature="0" /></clipPath><clipPath
       clipPathUnits="userSpaceOnUse"
       id="clipPath208"><path
         d="m 130.05,144.95 c 0.3,-0.4 0.4,-0.8 0.4,-1.4 0,-0.9 -0.3,-1.5 -0.9,-1.9 -0.6,-0.4 -1.5,-0.6 -2.7,-0.6 h -2.5 v 8.9 h 2.5 c 1,0 1.7,-0.2 2.2,-0.6 0.5,-0.4 0.8,-0.9 0.8,-1.7 0,-0.4 -0.1,-0.8 -0.3,-1.1 -0.2,-0.3 -0.5,-0.6 -0.9,-0.8 0.6,-0.2 1.1,-0.5 1.4,-0.8 z m -3.3,1.1 c 0.7,0 1.2,0.1 1.5,0.4 0.3,0.3 0.5,0.7 0.5,1.2 0,0.5 -0.2,0.8 -0.5,1 -0.3,0.2 -0.9,0.3 -1.6,0.3 h -1.3 v -3 h 1.4 z m 0.1,-4.2 c 0.9,0 1.6,0.1 2,0.4 0.4,0.3 0.6,0.7 0.6,1.2 0,0.5 -0.1,0.9 -0.4,1.1 -0.3,0.2 -0.6,0.4 -0.9,0.4 -0.3,0 -0.8,0.1 -1.2,0.1 h -1.4 v -3.3 h 1.3 z"
         id="path206"
         inkscape:connector-curvature="0" /></clipPath><clipPath
       clipPathUnits="userSpaceOnUse"
       id="clipPath218"><path
         d="m 135.85,145.35 v -4.4 h -1 v 4.4 l -3.2,4.5 h 1.1 l 2.6,-3.7 2.6,3.7 h 1.1 z"
         id="path216"
         inkscape:connector-curvature="0"
         style="clip-rule:evenodd" /></clipPath><clipPath
       clipPathUnits="userSpaceOnUse"
       id="clipPath228"><path
         d="m 34.65,212.55 c 0.6,1 1,2.6 1.3,4.5 h 4.8 c 1.3,0 2.5,0.1 3.6,0.3 l 1.6,5 h -17 c -0.3,-1 -0.3,-2.2 -0.3,-3.4 0,-2.8 0.3,-4.8 1.1,-6.1 z"
         id="path226"
         inkscape:connector-curvature="0"
         style="clip-rule:evenodd" /></clipPath><clipPath
       clipPathUnits="userSpaceOnUse"
       id="clipPath238"><path
         d="m 50.85,215.15 c 1.933,0 3.5,1.567 3.5,3.5 0,1.933 -1.567,3.5 -3.5,3.5 -1.933,0 -3.5,-1.567 -3.5,-3.5 0,-1.933 1.567,-3.5 3.5,-3.5 z"
         id="path236"
         inkscape:connector-curvature="0"
         style="clip-rule:evenodd" /></clipPath><clipPath
       clipPathUnits="userSpaceOnUse"
       id="clipPath248"><path
         d="m 41.35,200.75 c 1.933,0 3.5,1.567 3.5,3.5 0,1.933 -1.567,3.5 -3.5,3.5 -1.933,0 -3.5,-1.567 -3.5,-3.5 0,-1.933 1.567,-3.5 3.5,-3.5 z"
         id="path246"
         inkscape:connector-curvature="0"
         style="clip-rule:evenodd" /></clipPath><clipPath
       clipPathUnits="userSpaceOnUse"
       id="clipPath258"><path
         d="m 31.45,186.35 c 1.933,0 3.5,1.567 3.5,3.5 0,1.933 -1.567,3.5 -3.5,3.5 -1.933,0 -3.5,-1.567 -3.5,-3.5 0,-1.933 1.567,-3.5 3.5,-3.5 z"
         id="path256"
         inkscape:connector-curvature="0"
         style="clip-rule:evenodd" /></clipPath><clipPath
       clipPathUnits="userSpaceOnUse"
       id="clipPath268"><path
         d="m 42.73842,209.2063 3.99672,5.9889 2.32904,-1.5543 -3.99672,-5.9889 z"
         id="path266"
         inkscape:connector-curvature="0"
         style="clip-rule:evenodd" /></clipPath><clipPath
       clipPathUnits="userSpaceOnUse"
       id="clipPath278"><path
         d="m 33.23747,194.9849 3.99816,5.9882 2.32876,-1.5548 -3.99816,-5.9883 z"
         id="path276"
         inkscape:connector-curvature="0"
         style="clip-rule:evenodd" /></clipPath></defs><sodipodi:namedview
     pagecolor="#ffffff"
     bordercolor="#666666"
     borderopacity="1"
     objecttolerance="10"
     gridtolerance="10"
     guidetolerance="10"
     inkscape:pageopacity="0"
     inkscape:pageshadow="2"
     inkscape:window-width="1096"
     inkscape:window-height="637"
     id="namedview4"
     showgrid="false"
     inkscape:zoom="0.72839506"
     inkscape:cx="101.59322"
     inkscape:cy="162"
     inkscape:window-x="0"
     inkscape:window-y="0"
     inkscape:window-maximized="0"
     inkscape:current-layer="g10" /><g
     id="g10"
     inkscape:groupmode="layer"
     inkscape:label="Stacked square_Zenda BA"
     transform="matrix(1.3333333,0,0,-1.3333333,0,324)"><g
       id="g12" /><g
       id="g14"><g
         id="g16"
         clip-path="url(#clipPath20)"><path
           d="M -4.5,248 H 248 V -4.5 H -4.5 Z"
           style="fill:#ffffff;fill-opacity:1;fill-rule:nonzero;stroke:none"
           id="path22"
           inkscape:connector-curvature="0" /></g></g><g
       id="g24"><g
         id="g26"
         clip-path="url(#clipPath30)"><path
           d="m 23.95,82.15 h 141.8 V 47.05 H 23.95 Z"
           style="fill:#264895;fill-opacity:1;fill-rule:nonzero;stroke:none"
           id="path32"
           inkscape:connector-curvature="0" /></g></g><g
       id="g34"><g
         id="g36"
         clip-path="url(#clipPath40)"><path
           d="m 15.25,50.85 h 153.5 V 15.75 H 15.25 Z"
           style="fill:#264895;fill-opacity:1;fill-rule:nonzero;stroke:none"
           id="path42"
           inkscape:connector-curvature="0" /></g></g><g
       id="g44"><g
         id="g46"
         clip-path="url(#clipPath50)"><g
           id="g52"><path
             d="m 223.35,93.75 c -4.1,-4.1 -12.9,-7.5 -17.2,-9.2 -5.9,-2.2 -8.6,-3 -11.9,-4.1 -3.8,-1.2 -11.3,-3.5 -11.3,-3.5 15.6,-4.6 26.5,-6 26.5,-6 0,0 5.1,1.6 13.2,5.9 4.4,2.2 6.5,3.7 8.1,5.2 0.6,0.5 2,2 2.4,4 0,0.1 0.1,0.5 0.1,0.9 0,0 0,0.3 0,0.5 0,0.3 -0.1,0.4 -0.1,0.4 0,0 -0.1,0.5 -0.2,0.8 -0.1,0.3 -0.6,1.3 -1.4,2 -0.5,0.4 -1.5,1.5 -4.9,2.7 -1.2,0.4 -3,0.8 -3,0.8 z"
             style="fill:url(#linearGradient58);fill-rule:evenodd;stroke:none"
             id="path60"
             inkscape:connector-curvature="0" /></g><g
           id="g62"><path
             d="m 223.35,93.75 c -4.1,-4.1 -12.9,-7.5 -17.2,-9.2 -5.9,-2.2 -8.6,-3 -11.9,-4.1 -3.8,-1.2 -11.3,-3.5 -11.3,-3.5 15.6,-4.6 26.5,-6 26.5,-6 0,0 5.1,1.6 13.2,5.9 4.4,2.2 6.5,3.7 8.1,5.2 0.6,0.5 2,2 2.4,4 0,0.1 0.1,0.5 0.1,0.9 0,0 0,0.3 0,0.5 0,0.3 -0.1,0.4 -0.1,0.4 0,0 -0.1,0.5 -0.2,0.8 -0.1,0.3 -0.6,1.3 -1.4,2 -0.5,0.4 -1.5,1.5 -4.9,2.7 -1.2,0.4 -3,0.8 -3,0.8 z"
             style="fill:url(#linearGradient68);fill-rule:evenodd;stroke:none"
             id="path70"
             inkscape:connector-curvature="0" /></g></g></g><g
       id="g72"><g
         id="g74"
         clip-path="url(#clipPath78)"><path
           d="m 84.05,112.2393 h 154.2 V 82.05 H 84.05 Z"
           style="fill:#c20019;fill-opacity:1;fill-rule:nonzero;stroke:none"
           id="path80"
           inkscape:connector-curvature="0" /></g></g><g
       id="g82"><g
         id="g84"
         clip-path="url(#clipPath88)"><path
           d="m 32.15,201.05 h 29.2 v -19.7 h -29.2 z"
           style="fill:#444545;fill-opacity:1;fill-rule:nonzero;stroke:none"
           id="path90"
           inkscape:connector-curvature="0" /></g></g><g
       id="g92"><g
         id="g94"
         clip-path="url(#clipPath98)"><path
           d="m 52.15,217.95 h 32.4 v -36.9 h -32.4 z"
           style="fill:#444545;fill-opacity:1;fill-rule:nonzero;stroke:none"
           id="path100"
           inkscape:connector-curvature="0" /></g></g><g
       id="g102"><g
         id="g104"
         clip-path="url(#clipPath108)"><path
           d="m 75.45,217.95 h 39.2 v -36.6 h -39.2 z"
           style="fill:#444545;fill-opacity:1;fill-rule:nonzero;stroke:none"
           id="path110"
           inkscape:connector-curvature="0" /></g></g><g
       id="g112"><g
         id="g114"
         clip-path="url(#clipPath118)"><path
           d="m 105.15,227.25 h 36.5 v -46.3 h -36.5 z"
           style="fill:#444545;fill-opacity:1;fill-rule:nonzero;stroke:none"
           id="path120"
           inkscape:connector-curvature="0" /></g></g><g
       id="g122"><g
         id="g124"
         clip-path="url(#clipPath128)"><path
           d="m 132.55,217.75 h 35 v -36.7 h -35 z"
           style="fill:#444545;fill-opacity:1;fill-rule:nonzero;stroke:none"
           id="path130"
           inkscape:connector-curvature="0" /></g></g><g
       id="g132"><g
         id="g134"
         clip-path="url(#clipPath138)"><path
           d="m 47.15,154.85 h 15.4 v -18.9 h -15.4 z"
           style="fill:#264895;fill-opacity:1;fill-rule:nonzero;stroke:none"
           id="path140"
           inkscape:connector-curvature="0" /></g></g><g
       id="g142"><g
         id="g144"
         clip-path="url(#clipPath148)"><path
           d="m 54.75,155.05 h 19.2 v -19.4 h -19.2 z"
           style="fill:#264895;fill-opacity:1;fill-rule:nonzero;stroke:none"
           id="path150"
           inkscape:connector-curvature="0" /></g></g><g
       id="g152"><g
         id="g154"
         clip-path="url(#clipPath158)"><path
           d="m 65.75,154.85 h 20.8 v -18.9 h -20.8 z"
           style="fill:#264895;fill-opacity:1;fill-rule:nonzero;stroke:none"
           id="path160"
           inkscape:connector-curvature="0" /></g></g><g
       id="g162"><g
         id="g164"
         clip-path="url(#clipPath168)"><path
           d="m 78.95,154.85 h 15.5 v -18.9 h -15.5 z"
           style="fill:#264895;fill-opacity:1;fill-rule:nonzero;stroke:none"
           id="path170"
           inkscape:connector-curvature="0" /></g></g><g
       id="g172"><g
         id="g174"
         clip-path="url(#clipPath178)"><path
           d="m 87.15,154.85 h 16.9 v -19 h -16.9 z"
           style="fill:#264895;fill-opacity:1;fill-rule:nonzero;stroke:none"
           id="path180"
           inkscape:connector-curvature="0" /></g></g><g
       id="g182"><g
         id="g184"
         clip-path="url(#clipPath188)"><path
           d="m 96.35,154.85 h 15.5 v -18.9 h -15.5 z"
           style="fill:#264895;fill-opacity:1;fill-rule:nonzero;stroke:none"
           id="path190"
           inkscape:connector-curvature="0" /></g></g><g
       id="g192"><g
         id="g194"
         clip-path="url(#clipPath198)"><path
           d="m 104.45,154.85 h 17.7 v -19 h -17.7 z"
           style="fill:#264895;fill-opacity:1;fill-rule:nonzero;stroke:none"
           id="path200"
           inkscape:connector-curvature="0" /></g></g><g
       id="g202"><g
         id="g204"
         clip-path="url(#clipPath208)"><path
           d="m 119.35,154.95 h 16.1 v -18.9 h -16.1 z"
           style="fill:#264895;fill-opacity:1;fill-rule:nonzero;stroke:none"
           id="path210"
           inkscape:connector-curvature="0" /></g></g><g
       id="g212"><g
         id="g214"
         clip-path="url(#clipPath218)"><path
           d="m 126.65,154.85 h 17.4 v -18.9 h -17.4 z"
           style="fill:#264895;fill-opacity:1;fill-rule:nonzero;stroke:none"
           id="path220"
           inkscape:connector-curvature="0" /></g></g><g
       id="g222"><g
         id="g224"
         clip-path="url(#clipPath228)"><path
           d="m 23.65,227.35 h 27.3 v -19.8 h -27.3 z"
           style="fill:#444545;fill-opacity:1;fill-rule:nonzero;stroke:none"
           id="path230"
           inkscape:connector-curvature="0" /></g></g><g
       id="g232"><g
         id="g234"
         clip-path="url(#clipPath238)"><path
           d="m 42.35,227.15 h 17 v -17 h -17 z"
           style="fill:#c62155;fill-opacity:1;fill-rule:nonzero;stroke:none"
           id="path240"
           inkscape:connector-curvature="0" /></g></g><g
       id="g242"><g
         id="g244"
         clip-path="url(#clipPath248)"><path
           d="m 32.85,212.75 h 17 v -17 h -17 z"
           style="fill:#c62155;fill-opacity:1;fill-rule:nonzero;stroke:none"
           id="path250"
           inkscape:connector-curvature="0" /></g></g><g
       id="g252"><g
         id="g254"
         clip-path="url(#clipPath258)"><path
           d="m 22.95,198.35 h 17 v -17 h -17 z"
           style="fill:#c62155;fill-opacity:1;fill-rule:nonzero;stroke:none"
           id="path260"
           inkscape:connector-curvature="0" /></g></g><g
       id="g262"><g
         id="g264"
         clip-path="url(#clipPath268)"><path
           d="m 35.80401,207.8228 9.54765,14.3068 10.64693,-7.1052 -9.54765,-14.3068 z"
           style="fill:#c62155;fill-opacity:1;fill-rule:nonzero;stroke:none"
           id="path270"
           inkscape:connector-curvature="0" /></g></g><g
       id="g272"><g
         id="g274"
         clip-path="url(#clipPath278)"><path
           d="m 26.30276,193.6029 9.55093,14.3049 10.64541,-7.1076 -9.55093,-14.3049 z"
           style="fill:#c62155;fill-opacity:1;fill-rule:nonzero;stroke:none"
           id="path280"
           inkscape:connector-curvature="0" /></g></g></g></svg>